HIERARCHY
ROOT Hips
{
	OFFSET -0.001795 -0.223333 0.028219
	CHANNELS 6 Xposition Yposition Zposition Zrotation Yrotation Xrotation 
	JOINT LeftUpLeg
	{
		OFFSET 0.069520 -0.091406 -0.006815
		CHANNELS 3 Zrotation Yrotation Xrotation
		JOINT LeftLeg
		{
			OFFSET 0.034277 -0.375199 -0.004496
			CHANNELS 3 Zrotation Yrotation Xrotation
			JOINT LeftFoot
			{
				OFFSET -0.013596 -0.397961 -0.043693
				CHANNELS 3 Zrotation Yrotation Xrotation
				JOINT LeftToe
				{
					OFFSET 0.026358 -0.055791 0.119288
					CHANNELS 3 Zrotation Yrotation Xrotation
					End Site
					{
						OFFSET 0.000000 0.000000 0.000000
					}
				}
			}
		}
	}
	JOINT RightUpLeg
	{
		OFFSET -0.067670 -0.090522 -0.004320
		CHANNELS 3 Zrotation Yrotation Xrotation
		JOINT RightLeg
		{
			OFFSET -0.038290 -0.382569 -0.008850
			CHANNELS 3 Zrotation Yrotation Xrotation
			JOINT RightFoot
			{
				OFFSET 0.015774 -0.398415 -0.042312
				CHANNELS 3 Zrotation Yrotation Xrotation
				JOINT RightToe
				{
					OFFSET -0.025372 -0.048144 0.123348
					CHANNELS 3 Zrotation Yrotation Xrotation
					End Site
					{
						OFFSET 0.000000 0.000000 0.000000
					}
				}
			}
		}
	}
	JOINT Spine
	{
		OFFSET -0.002533 0.108963 -0.026696
		CHANNELS 3 Zrotation Yrotation Xrotation
		JOINT Spine1
		{
			OFFSET 0.005487 0.135180 0.001092
			CHANNELS 3 Zrotation Yrotation Xrotation
			JOINT Spine2
			{
				OFFSET 0.001457 0.052922 0.025425
				CHANNELS 3 Zrotation Yrotation Xrotation
				JOINT Neck
				{
					OFFSET -0.002778 0.213870 -0.042857
					CHANNELS 3 Zrotation Yrotation Xrotation
					JOINT Head
					{
						OFFSET 0.005152 0.064970 0.051349
						CHANNELS 3 Zrotation Yrotation Xrotation
						End Site
						{
							OFFSET 0.000000 0.000000 0.000000
						}
					}
				}
				JOINT LeftShoulder
				{
					OFFSET 0.078845 0.121749 -0.034090
					CHANNELS 3 Zrotation Yrotation Xrotation
					JOINT LeftArm
					{
						OFFSET 0.090977 0.030469 -0.008868
						CHANNELS 3 Zrotation Yrotation Xrotation
						JOINT LeftForeArm
						{
							OFFSET 0.259612 -0.012772 -0.027456
							CHANNELS 3 Zrotation Yrotation Xrotation
							JOINT LeftHand
							{
								OFFSET 0.249234 0.008986 -0.001171
								CHANNELS 3 Zrotation Yrotation Xrotation
								End Site
								{
									OFFSET 0.000000 0.000000 0.000000
								}
							}
						}
					}
				}
				JOINT RightShoulder
				{
					OFFSET -0.081759 0.118833 -0.038615
					CHANNELS 3 Zrotation Yrotation Xrotation
					JOINT RightArm
					{
						OFFSET -0.096012 0.032551 -0.009143
						CHANNELS 3 Zrotation Yrotation Xrotation
						JOINT RightForeArm
						{
							OFFSET -0.253742 -0.013329 -0.021401
							CHANNELS 3 Zrotation Yrotation Xrotation
							JOINT RightHand
							{
								OFFSET -0.255298 0.007772 -0.005559
								CHANNELS 3 Zrotation Yrotation Xrotation
								End Site
								{
									OFFSET 0.000000 0.000000 0.000000
								}
							}
						}
					}
				}
			}
		}
	}
}
MOTION
Frames: 10
Frame Time: 0.050000
-0.026541 0.949251 0.851152 -6.182689 59.563715 -8.760243 -12.068249 -0.912911 -6.012782 3.413767 -1.507791 10.929009 -11.780852 -7.931472 11.774251 0.000000 0.000000 0.000000 3.503738 0.782494 -11.305312 -18.441679 -10.857496 61.937412 7.162977 10.614952 15.935517 0.000000 0.000000 0.000000 0.384835 -0.083780 2.398031 -3.888928 1.421567 -2.056948 2.905916 2.634274 4.147779 -1.697083 4.725054 -11.816212 0.000000 0.000000 0.000000 -20.658129 0.684107 -12.420827 -45.701557 12.855677 -8.452031 -18.237504 -23.774703 2.518360 0.000000 0.000000 0.000000 21.918168 1.050094 8.742739 51.663760 15.834314 -0.333872 4.615468 23.397001 2.300511 0.000000 0.000000 0.000000 
-0.015406 0.956041 0.869470 -14.069101 73.933250 -16.162818 -12.887888 -0.742043 -4.683485 4.429145 -1.579379 10.305098 -16.202696 -10.404497 14.618095 0.000000 0.000000 0.000000 4.370056 0.156799 -15.525764 -33.969930 -8.238344 63.962477 12.833870 20.750114 12.983994 0.000000 0.000000 0.000000 0.264473 -0.081915 2.478343 -3.697576 0.824231 -2.265090 1.472164 4.506276 3.112033 0.683900 3.982235 -12.146225 0.000000 0.000000 0.000000 -18.042168 0.890092 -14.346049 -46.011076 15.034344 -9.544794 -20.607210 -26.558476 2.377687 0.000000 0.000000 0.000000 26.026876 -3.280770 10.962821 48.924288 17.807075 -1.218242 4.019003 25.163792 2.475242 0.000000 0.000000 0.000000 
-0.004682 0.962255 0.882991 -89.831989 85.680545 -91.506408 -12.068267 -0.342794 -2.282011 4.601355 -1.501381 9.455313 -19.010672 -13.545609 14.877441 0.000000 0.000000 0.000000 3.510643 -1.280629 -16.975217 -41.965389 -9.672357 59.921835 17.057822 25.250522 12.557256 0.000000 0.000000 0.000000 0.444823 -0.052453 1.771521 -3.571632 0.196086 -3.573279 0.699389 4.870663 5.139429 1.007385 4.648584 -13.248680 0.000000 0.000000 0.000000 -16.370635 -0.402575 -16.900315 -46.956510 16.092853 -10.509199 -21.570761 -26.590017 1.792551 0.000000 0.000000 0.000000 26.592105 -4.872450 14.162781 46.088425 20.667604 -1.082567 4.153869 25.913936 2.337105 0.000000 0.000000 0.000000 
0.003797 0.967158 0.894186 -159.283744 75.345758 -161.652239 -11.045698 -0.286338 -1.239164 3.779621 -2.408196 12.373049 -17.344940 -12.456976 13.213785 0.000000 0.000000 0.000000 3.825809 -2.660974 -18.151957 -51.698897 -10.993564 56.843645 27.443225 31.497885 16.650681 0.000000 0.000000 0.000000 0.662027 -0.065225 2.061062 -2.906220 -0.589026 -4.835369 0.222198 4.083349 8.124865 2.244428 4.410313 -13.504612 0.000000 0.000000 0.000000 -16.270162 -1.749271 -21.614657 -46.958035 20.491422 -12.125768 -23.881576 -27.511720 1.668574 0.000000 0.000000 0.000000 26.058238 -6.530174 16.428104 47.980875 23.553551 0.585205 1.352151 28.724412 1.779375 0.000000 0.000000 0.000000 
0.009714 0.969262 0.904441 -166.013226 61.481682 -168.987235 -8.610856 -0.364228 -0.257288 1.041590 -2.598247 11.306176 -14.256681 -8.527628 13.395829 0.000000 0.000000 0.000000 4.908605 -3.614036 -18.160524 -55.361322 -14.586548 54.168558 42.879901 34.008997 22.611989 0.000000 0.000000 0.000000 1.428109 -0.091157 2.195820 -2.118179 -1.231275 -7.033828 -0.102250 4.553218 10.234743 2.889521 4.167449 -15.482511 0.000000 0.000000 0.000000 -13.459811 -3.679709 -25.957001 -48.442217 24.482774 -15.184720 -26.162346 -25.628737 1.023285 0.000000 0.000000 0.000000 25.783151 -7.009124 21.189148 47.777573 25.910351 1.972564 -3.047792 28.908304 -0.046554 0.000000 0.000000 0.000000 
0.014649 0.969135 0.913618 -169.093219 46.490153 -172.738457 -6.495705 -1.098396 1.591288 -0.406477 -3.003135 9.190507 -7.869719 -9.055294 11.336414 0.000000 0.000000 0.000000 5.001416 -5.191464 -18.047490 -57.995073 -18.594669 52.922751 57.062224 26.507440 29.374509 0.000000 0.000000 0.000000 1.950400 -0.137950 2.083460 -2.637898 -2.736765 -7.956008 0.439087 4.898812 11.133710 1.422299 2.025806 -16.563789 0.000000 0.000000 0.000000 -10.828203 -7.246573 -33.864716 -48.265003 32.594253 -19.230734 -28.227068 -23.682937 0.331372 0.000000 0.000000 0.000000 25.562142 -9.596776 26.424876 47.347701 30.759621 4.722281 -7.447745 26.528021 -1.777756 0.000000 0.000000 0.000000 
0.019729 0.966760 0.921261 -170.436713 35.057508 -174.177189 -5.572207 -1.846409 2.249431 -1.679030 -3.737154 6.962177 0.595982 -10.287803 10.644967 0.000000 0.000000 0.000000 3.277545 -6.907289 -16.711786 -50.412576 -20.375199 46.396446 68.031710 11.401631 27.981650 0.000000 0.000000 0.000000 2.334717 -0.198806 2.151751 -3.013409 -4.004233 -8.974489 0.856651 6.037788 12.315997 1.521372 -2.059573 -17.883253 0.000000 0.000000 0.000000 -8.251507 -10.747336 -46.098667 -42.223889 42.564330 -19.899413 -34.117695 -18.378505 -0.199961 0.000000 0.000000 0.000000 25.755123 -12.412154 34.408140 44.372464 37.901864 7.162577 -11.828551 24.302462 -3.150690 0.000000 0.000000 0.000000 
0.024786 0.964174 0.926984 -170.676225 22.165002 -175.211233 -4.308804 -2.930481 2.626567 -1.705232 -4.617950 6.315936 12.049710 -14.888747 11.171920 0.000000 0.000000 0.000000 3.726900 -8.471403 -17.159919 -48.252919 -22.215652 43.319505 86.051820 -8.975312 24.010680 0.000000 0.000000 0.000000 2.504659 -0.271771 2.053624 -2.844210 -6.009505 -9.474266 1.164537 7.352716 13.068128 -0.195611 -9.518562 -19.563605 0.000000 0.000000 0.000000 -1.160672 -12.971621 -69.913546 -24.729507 61.812760 -15.964867 -40.078395 -7.567639 -3.658108 0.000000 0.000000 0.000000 24.416336 -18.066140 47.453782 38.000820 49.018655 10.133020 -17.094039 20.106410 -3.985797 0.000000 0.000000 0.000000 
0.028867 0.959606 0.931723 -171.383841 10.689495 -175.409803 -3.532479 -4.037689 2.760434 -3.115849 -6.272772 5.238014 27.243760 -22.304636 9.170865 0.000000 0.000000 0.000000 2.916871 -11.308625 -17.922818 -41.744185 -23.034562 39.702588 105.320391 -22.935520 11.040077 0.000000 0.000000 0.000000 2.407915 -0.414252 1.054822 -3.587489 -8.417280 -9.324052 2.084113 9.352198 13.713697 -3.757919 -21.831743 -17.982439 0.000000 0.000000 0.000000 12.311475 -5.666209 -122.157940 74.937637 51.469620 48.786973 -39.848360 20.763203 -14.709756 0.000000 0.000000 0.000000 19.074466 -26.355256 72.523911 8.451556 67.048358 0.298915 -22.685197 9.414233 -2.917311 0.000000 0.000000 0.000000 
0.032180 0.956352 0.936191 -171.955010 2.105842 -174.977340 -3.795330 -4.419882 2.586973 -2.613176 -6.917450 4.576470 45.606705 -30.554342 5.095593 0.000000 0.000000 0.000000 3.113136 -14.562406 -20.150537 -39.502241 -22.795714 36.899421 132.351267 -33.497073 -5.136150 0.000000 0.000000 0.000000 2.842486 -0.755746 -0.332191 -3.916560 -10.150493 -9.178522 2.121587 11.944672 15.264599 -5.309469 -30.239280 -18.381799 0.000000 0.000000 0.000000 15.528592 15.028752 170.984402 91.828758 -13.698568 3.490305 8.055489 41.334836 -3.788106 0.000000 0.000000 0.000000 2.919687 -28.367866 119.007318 -79.159007 58.851435 -48.142145 -23.938527 -13.772244 1.077401 0.000000 0.000000 0.000000 
